<svg width="357" height="138" viewBox="0 0 357 138" fill="none" xmlns="http://www.w3.org/2000/svg">
<path d="M20.872 129.168C20.552 129.168 20.296 129.096 20.104 128.952C19.912 128.808 19.8 128.616 19.768 128.376C19.736 128.136 19.784 127.864 19.912 127.56L26.416 112.968C26.576 112.584 26.776 112.312 27.016 112.152C27.272 111.992 27.552 111.912 27.856 111.912C28.144 111.912 28.408 111.992 28.648 112.152C28.904 112.312 29.112 112.584 29.272 112.968L35.776 127.56C35.92 127.864 35.976 128.144 35.944 128.4C35.912 128.64 35.808 128.832 35.632 128.976C35.456 129.104 35.208 129.168 34.888 129.168C34.536 129.168 34.256 129.08 34.048 128.904C33.84 128.728 33.656 128.456 33.496 128.088L31.816 124.2L32.944 124.872H22.72L23.824 124.2L22.168 128.088C22.008 128.472 21.832 128.752 21.64 128.928C21.448 129.088 21.192 129.168 20.872 129.168ZM27.808 114.84L24.184 123.432L23.584 122.856H32.056L31.504 123.432L27.856 114.84H27.808ZM45.904 133.488C45.52 133.488 45.224 133.384 45.016 133.176C44.808 132.968 44.704 132.664 44.704 132.264V118.344C44.704 117.944 44.808 117.64 45.016 117.432C45.224 117.224 45.512 117.12 45.88 117.12C46.264 117.12 46.56 117.224 46.768 117.432C46.976 117.64 47.08 117.944 47.08 118.344V120.432L46.816 119.928C47.072 119.064 47.576 118.376 48.328 117.864C49.08 117.336 49.968 117.072 50.992 117.072C52.032 117.072 52.936 117.32 53.704 117.816C54.488 118.312 55.088 119.008 55.504 119.904C55.936 120.8 56.152 121.88 56.152 123.144C56.152 124.376 55.936 125.456 55.504 126.384C55.088 127.296 54.496 128 53.728 128.496C52.96 128.976 52.048 129.216 50.992 129.216C49.984 129.216 49.104 128.96 48.352 128.448C47.6 127.936 47.096 127.256 46.84 126.408H47.128V132.264C47.128 132.664 47.016 132.968 46.792 133.176C46.584 133.384 46.288 133.488 45.904 133.488ZM50.392 127.344C51.064 127.344 51.648 127.184 52.144 126.864C52.64 126.544 53.024 126.072 53.296 125.448C53.568 124.824 53.704 124.056 53.704 123.144C53.704 121.768 53.4 120.728 52.792 120.024C52.2 119.32 51.4 118.968 50.392 118.968C49.736 118.968 49.152 119.128 48.64 119.448C48.144 119.752 47.76 120.216 47.488 120.84C47.216 121.464 47.08 122.232 47.08 123.144C47.08 124.504 47.384 125.544 47.992 126.264C48.6 126.984 49.4 127.344 50.392 127.344ZM62.6517 129.216C61.4037 129.216 60.4597 128.856 59.8197 128.136C59.1957 127.4 58.8837 126.344 58.8837 124.968V113.136C58.8837 112.736 58.9877 112.432 59.1957 112.224C59.4037 112.016 59.6997 111.912 60.0837 111.912C60.4677 111.912 60.7637 112.016 60.9717 112.224C61.1957 112.432 61.3077 112.736 61.3077 113.136V124.824C61.3077 125.624 61.4677 126.224 61.7877 126.624C62.1237 127.008 62.6037 127.2 63.2277 127.2C63.3717 127.2 63.4997 127.2 63.6117 127.2C63.7237 127.184 63.8357 127.168 63.9477 127.152C64.1397 127.136 64.2757 127.192 64.3557 127.32C64.4357 127.432 64.4757 127.672 64.4757 128.04C64.4757 128.376 64.4037 128.64 64.2597 128.832C64.1157 129.008 63.8837 129.12 63.5637 129.168C63.4197 129.184 63.2677 129.192 63.1077 129.192C62.9477 129.208 62.7957 129.216 62.6517 129.216ZM69.9636 129.216C69.1476 129.216 68.4116 129.056 67.7556 128.736C67.1156 128.416 66.6116 127.984 66.2436 127.44C65.8756 126.896 65.6916 126.28 65.6916 125.592C65.6916 124.728 65.9076 124.048 66.3396 123.552C66.7876 123.04 67.5156 122.68 68.5236 122.472C69.5476 122.248 70.9236 122.136 72.6516 122.136H73.7796V123.624H72.6756C71.5236 123.624 70.6116 123.68 69.9396 123.792C69.2676 123.904 68.7876 124.096 68.4996 124.368C68.2276 124.624 68.0916 124.984 68.0916 125.448C68.0916 126.056 68.2996 126.552 68.7156 126.936C69.1316 127.304 69.7076 127.488 70.4436 127.488C71.0356 127.488 71.5556 127.352 72.0036 127.08C72.4516 126.792 72.8036 126.408 73.0596 125.928C73.3316 125.448 73.4676 124.896 73.4676 124.272V121.512C73.4676 120.6 73.2756 119.944 72.8916 119.544C72.5076 119.144 71.8756 118.944 70.9956 118.944C70.4836 118.944 69.9476 119.008 69.3876 119.136C68.8436 119.264 68.2756 119.48 67.6836 119.784C67.4116 119.912 67.1796 119.952 66.9876 119.904C66.7956 119.856 66.6436 119.752 66.5316 119.592C66.4196 119.416 66.3556 119.232 66.3396 119.04C66.3396 118.832 66.3876 118.632 66.4836 118.44C66.5956 118.248 66.7796 118.104 67.0356 118.008C67.7396 117.672 68.4356 117.432 69.1236 117.288C69.8116 117.144 70.4596 117.072 71.0676 117.072C72.1396 117.072 73.0196 117.24 73.7076 117.576C74.4116 117.912 74.9316 118.424 75.2676 119.112C75.6036 119.8 75.7716 120.688 75.7716 121.776V127.944C75.7716 128.328 75.6756 128.632 75.4836 128.856C75.2916 129.064 75.0116 129.168 74.6436 129.168C74.2916 129.168 74.0116 129.064 73.8036 128.856C73.5956 128.632 73.4916 128.328 73.4916 127.944V126.384H73.7076C73.5796 126.976 73.3396 127.488 72.9876 127.92C72.6516 128.336 72.2276 128.656 71.7156 128.88C71.2036 129.104 70.6196 129.216 69.9636 129.216ZM84.1023 129.216C83.1423 129.216 82.3343 129.048 81.6783 128.712C81.0223 128.376 80.5343 127.88 80.2143 127.224C79.8943 126.568 79.7343 125.768 79.7343 124.824V119.16H78.2943C77.9743 119.16 77.7263 119.08 77.5503 118.92C77.3742 118.744 77.2862 118.512 77.2862 118.224C77.2862 117.92 77.3742 117.688 77.5503 117.528C77.7263 117.368 77.9743 117.288 78.2943 117.288H79.7343V114.816C79.7343 114.416 79.8383 114.112 80.0463 113.904C80.2703 113.696 80.5743 113.592 80.9583 113.592C81.3423 113.592 81.6383 113.696 81.8463 113.904C82.0543 114.112 82.1583 114.416 82.1583 114.816V117.288H84.9663C85.2863 117.288 85.5343 117.368 85.7103 117.528C85.8863 117.688 85.9743 117.92 85.9743 118.224C85.9743 118.512 85.8863 118.744 85.7103 118.92C85.5343 119.08 85.2863 119.16 84.9663 119.16H82.1583V124.632C82.1583 125.48 82.3343 126.12 82.6863 126.552C83.0543 126.984 83.6463 127.2 84.4622 127.2C84.7503 127.2 84.9983 127.176 85.2063 127.128C85.4303 127.064 85.6143 127.024 85.7583 127.008C85.9343 127.008 86.0783 127.072 86.1903 127.2C86.3023 127.312 86.3583 127.536 86.3583 127.872C86.3583 128.112 86.3103 128.336 86.2143 128.544C86.1343 128.752 85.9823 128.888 85.7583 128.952C85.5663 129.016 85.3023 129.072 84.9663 129.12C84.6463 129.184 84.3583 129.216 84.1023 129.216ZM91.6199 129.216C90.8039 129.216 90.0679 129.056 89.4119 128.736C88.7719 128.416 88.2679 127.984 87.8999 127.44C87.5319 126.896 87.3479 126.28 87.3479 125.592C87.3479 124.728 87.5639 124.048 87.9959 123.552C88.4439 123.04 89.1719 122.68 90.1799 122.472C91.2039 122.248 92.5799 122.136 94.3079 122.136H95.4359V123.624H94.3319C93.1799 123.624 92.2679 123.68 91.5959 123.792C90.9239 123.904 90.4439 124.096 90.1559 124.368C89.8839 124.624 89.7479 124.984 89.7479 125.448C89.7479 126.056 89.9559 126.552 90.3719 126.936C90.7879 127.304 91.3639 127.488 92.0999 127.488C92.6919 127.488 93.2119 127.352 93.6599 127.08C94.1079 126.792 94.4599 126.408 94.7159 125.928C94.9879 125.448 95.1239 124.896 95.1239 124.272V121.512C95.1239 120.6 94.9319 119.944 94.5479 119.544C94.1639 119.144 93.5319 118.944 92.6519 118.944C92.1399 118.944 91.6039 119.008 91.0439 119.136C90.4999 119.264 89.9319 119.48 89.3399 119.784C89.0679 119.912 88.8359 119.952 88.6439 119.904C88.4519 119.856 88.2999 119.752 88.1879 119.592C88.0759 119.416 88.0119 119.232 87.9959 119.04C87.9959 118.832 88.0439 118.632 88.1399 118.44C88.2519 118.248 88.4359 118.104 88.6919 118.008C89.3959 117.672 90.0919 117.432 90.7799 117.288C91.4679 117.144 92.1159 117.072 92.7239 117.072C93.7959 117.072 94.6759 117.24 95.3639 117.576C96.0679 117.912 96.5879 118.424 96.9239 119.112C97.2599 119.8 97.4279 120.688 97.4279 121.776V127.944C97.4279 128.328 97.3319 128.632 97.1399 128.856C96.9479 129.064 96.6679 129.168 96.2999 129.168C95.9479 129.168 95.6679 129.064 95.4599 128.856C95.2519 128.632 95.1479 128.328 95.1479 127.944V126.384H95.3639C95.2359 126.976 94.9959 127.488 94.6439 127.92C94.3079 128.336 93.8839 128.656 93.3719 128.88C92.8599 129.104 92.2759 129.216 91.6199 129.216ZM102.687 129.168C102.303 129.168 101.999 129.064 101.775 128.856C101.567 128.632 101.463 128.328 101.463 127.944V119.16H100.119C99.8145 119.16 99.5745 119.08 99.3985 118.92C99.2225 118.744 99.1345 118.512 99.1345 118.224C99.1345 117.92 99.2225 117.688 99.3985 117.528C99.5745 117.368 99.8145 117.288 100.119 117.288H102.159L101.463 117.936V117.072C101.463 115.488 101.855 114.296 102.639 113.496C103.423 112.68 104.567 112.2 106.071 112.056L106.815 112.008C107.087 111.976 107.303 112.016 107.463 112.128C107.623 112.24 107.727 112.384 107.775 112.56C107.823 112.736 107.823 112.92 107.775 113.112C107.743 113.288 107.663 113.448 107.535 113.592C107.407 113.736 107.247 113.816 107.055 113.832L106.599 113.856C105.655 113.936 104.967 114.208 104.535 114.672C104.103 115.12 103.887 115.808 103.887 116.736V117.672L103.551 117.288H106.215C106.551 117.288 106.799 117.368 106.959 117.528C107.135 117.688 107.223 117.92 107.223 118.224C107.223 118.512 107.135 118.744 106.959 118.92C106.799 119.08 106.551 119.16 106.215 119.16H103.887V127.944C103.887 128.76 103.487 129.168 102.687 129.168ZM113.847 129.216C112.663 129.216 111.639 128.968 110.775 128.472C109.927 127.976 109.263 127.272 108.783 126.36C108.303 125.448 108.063 124.376 108.063 123.144C108.063 122.2 108.199 121.36 108.471 120.624C108.743 119.888 109.127 119.256 109.623 118.728C110.135 118.184 110.743 117.776 111.447 117.504C112.167 117.216 112.967 117.072 113.847 117.072C115.015 117.072 116.023 117.32 116.871 117.816C117.735 118.312 118.407 119.016 118.887 119.928C119.367 120.824 119.607 121.896 119.607 123.144C119.607 124.072 119.471 124.912 119.199 125.664C118.927 126.416 118.535 127.056 118.023 127.584C117.527 128.112 116.919 128.52 116.199 128.808C115.495 129.08 114.711 129.216 113.847 129.216ZM113.847 127.344C114.503 127.344 115.079 127.184 115.575 126.864C116.071 126.544 116.455 126.072 116.727 125.448C117.015 124.824 117.159 124.056 117.159 123.144C117.159 121.768 116.855 120.728 116.247 120.024C115.639 119.32 114.839 118.968 113.847 118.968C113.175 118.968 112.591 119.128 112.095 119.448C111.599 119.752 111.207 120.216 110.919 120.84C110.647 121.464 110.511 122.232 110.511 123.144C110.511 124.504 110.815 125.544 111.423 126.264C112.031 126.984 112.839 127.344 113.847 127.344ZM123.553 129.168C123.153 129.168 122.849 129.064 122.641 128.856C122.433 128.632 122.329 128.328 122.329 127.944V118.344C122.329 117.944 122.433 117.64 122.641 117.432C122.849 117.224 123.137 117.12 123.505 117.12C123.889 117.12 124.177 117.224 124.369 117.432C124.577 117.64 124.681 117.944 124.681 118.344V120.096H124.441C124.697 119.136 125.169 118.408 125.857 117.912C126.545 117.416 127.425 117.128 128.497 117.048C128.785 117.032 129.009 117.104 129.169 117.264C129.345 117.424 129.441 117.672 129.457 118.008C129.489 118.344 129.417 118.616 129.241 118.824C129.065 119.016 128.793 119.128 128.425 119.16L127.969 119.208C126.929 119.304 126.137 119.632 125.593 120.192C125.049 120.752 124.777 121.52 124.777 122.496V127.944C124.777 128.328 124.673 128.632 124.465 128.856C124.273 129.064 123.969 129.168 123.553 129.168ZM132.53 129.168C132.146 129.168 131.85 129.064 131.642 128.856C131.434 128.632 131.33 128.328 131.33 127.944V118.344C131.33 117.944 131.434 117.64 131.642 117.432C131.85 117.224 132.138 117.12 132.506 117.12C132.89 117.12 133.178 117.224 133.37 117.432C133.578 117.64 133.682 117.944 133.682 118.344V120.312L133.418 119.784C133.738 118.936 134.234 118.272 134.906 117.792C135.578 117.312 136.386 117.072 137.33 117.072C138.306 117.072 139.098 117.304 139.706 117.768C140.314 118.232 140.73 118.944 140.954 119.904H140.618C140.922 119.024 141.442 118.336 142.178 117.84C142.914 117.328 143.77 117.072 144.746 117.072C145.642 117.072 146.378 117.248 146.954 117.6C147.53 117.936 147.962 118.456 148.25 119.16C148.538 119.848 148.682 120.72 148.682 121.776V127.944C148.682 128.328 148.57 128.632 148.346 128.856C148.138 129.064 147.842 129.168 147.458 129.168C147.074 129.168 146.778 129.064 146.57 128.856C146.362 128.632 146.258 128.328 146.258 127.944V121.896C146.258 120.904 146.082 120.176 145.73 119.712C145.394 119.248 144.834 119.016 144.05 119.016C143.17 119.016 142.474 119.32 141.962 119.928C141.45 120.536 141.194 121.376 141.194 122.448V127.944C141.194 128.328 141.09 128.632 140.882 128.856C140.674 129.064 140.378 129.168 139.994 129.168C139.61 129.168 139.306 129.064 139.082 128.856C138.874 128.632 138.77 128.328 138.77 127.944V121.896C138.77 120.904 138.602 120.176 138.266 119.712C137.93 119.248 137.37 119.016 136.586 119.016C135.706 119.016 135.01 119.32 134.498 119.928C134.002 120.536 133.754 121.376 133.754 122.448V127.944C133.754 128.76 133.346 129.168 132.53 129.168ZM155.815 129.216C154.999 129.216 154.263 129.056 153.607 128.736C152.967 128.416 152.463 127.984 152.095 127.44C151.727 126.896 151.543 126.28 151.543 125.592C151.543 124.728 151.759 124.048 152.191 123.552C152.639 123.04 153.367 122.68 154.375 122.472C155.399 122.248 156.775 122.136 158.503 122.136H159.631V123.624H158.527C157.375 123.624 156.463 123.68 155.791 123.792C155.119 123.904 154.639 124.096 154.351 124.368C154.079 124.624 153.943 124.984 153.943 125.448C153.943 126.056 154.151 126.552 154.567 126.936C154.983 127.304 155.559 127.488 156.295 127.488C156.887 127.488 157.407 127.352 157.855 127.08C158.303 126.792 158.655 126.408 158.911 125.928C159.183 125.448 159.319 124.896 159.319 124.272V121.512C159.319 120.6 159.127 119.944 158.743 119.544C158.359 119.144 157.727 118.944 156.847 118.944C156.335 118.944 155.799 119.008 155.239 119.136C154.695 119.264 154.127 119.48 153.535 119.784C153.263 119.912 153.031 119.952 152.839 119.904C152.647 119.856 152.495 119.752 152.383 119.592C152.271 119.416 152.207 119.232 152.191 119.04C152.191 118.832 152.239 118.632 152.335 118.44C152.447 118.248 152.631 118.104 152.887 118.008C153.591 117.672 154.287 117.432 154.975 117.288C155.663 117.144 156.311 117.072 156.919 117.072C157.991 117.072 158.871 117.24 159.559 117.576C160.263 117.912 160.783 118.424 161.119 119.112C161.455 119.8 161.623 120.688 161.623 121.776V127.944C161.623 128.328 161.527 128.632 161.335 128.856C161.143 129.064 160.863 129.168 160.495 129.168C160.143 129.168 159.863 129.064 159.655 128.856C159.447 128.632 159.343 128.328 159.343 127.944V126.384H159.559C159.431 126.976 159.191 127.488 158.839 127.92C158.503 128.336 158.079 128.656 157.567 128.88C157.055 129.104 156.471 129.216 155.815 129.216ZM175.034 129.216C174.218 129.216 173.482 129.056 172.826 128.736C172.186 128.416 171.682 127.984 171.314 127.44C170.946 126.896 170.762 126.28 170.762 125.592C170.762 124.728 170.978 124.048 171.41 123.552C171.858 123.04 172.586 122.68 173.594 122.472C174.618 122.248 175.994 122.136 177.722 122.136H178.85V123.624H177.746C176.594 123.624 175.682 123.68 175.01 123.792C174.338 123.904 173.858 124.096 173.57 124.368C173.298 124.624 173.162 124.984 173.162 125.448C173.162 126.056 173.37 126.552 173.786 126.936C174.202 127.304 174.778 127.488 175.514 127.488C176.106 127.488 176.626 127.352 177.074 127.08C177.522 126.792 177.874 126.408 178.13 125.928C178.402 125.448 178.538 124.896 178.538 124.272V121.512C178.538 120.6 178.346 119.944 177.962 119.544C177.578 119.144 176.946 118.944 176.066 118.944C175.554 118.944 175.018 119.008 174.458 119.136C173.914 119.264 173.346 119.48 172.754 119.784C172.482 119.912 172.25 119.952 172.058 119.904C171.866 119.856 171.714 119.752 171.602 119.592C171.49 119.416 171.426 119.232 171.41 119.04C171.41 118.832 171.458 118.632 171.554 118.44C171.666 118.248 171.85 118.104 172.106 118.008C172.81 117.672 173.506 117.432 174.194 117.288C174.882 117.144 175.53 117.072 176.138 117.072C177.21 117.072 178.09 117.24 178.778 117.576C179.482 117.912 180.002 118.424 180.338 119.112C180.674 119.8 180.842 120.688 180.842 121.776V127.944C180.842 128.328 180.746 128.632 180.554 128.856C180.362 129.064 180.082 129.168 179.714 129.168C179.362 129.168 179.082 129.064 178.874 128.856C178.666 128.632 178.562 128.328 178.562 127.944V126.384H178.778C178.65 126.976 178.41 127.488 178.058 127.92C177.722 128.336 177.298 128.656 176.786 128.88C176.274 129.104 175.69 129.216 175.034 129.216ZM185.429 129.168C185.045 129.168 184.749 129.064 184.541 128.856C184.333 128.632 184.229 128.328 184.229 127.944V118.344C184.229 117.944 184.333 117.64 184.541 117.432C184.749 117.224 185.037 117.12 185.405 117.12C185.789 117.12 186.077 117.224 186.269 117.432C186.477 117.64 186.581 117.944 186.581 118.344V120.312L186.317 119.784C186.637 118.936 187.133 118.272 187.805 117.792C188.477 117.312 189.285 117.072 190.229 117.072C191.205 117.072 191.997 117.304 192.605 117.768C193.213 118.232 193.629 118.944 193.853 119.904H193.517C193.821 119.024 194.341 118.336 195.077 117.84C195.813 117.328 196.669 117.072 197.645 117.072C198.541 117.072 199.277 117.248 199.853 117.6C200.429 117.936 200.861 118.456 201.149 119.16C201.437 119.848 201.581 120.72 201.581 121.776V127.944C201.581 128.328 201.469 128.632 201.245 128.856C201.037 129.064 200.741 129.168 200.357 129.168C199.973 129.168 199.677 129.064 199.469 128.856C199.261 128.632 199.157 128.328 199.157 127.944V121.896C199.157 120.904 198.981 120.176 198.629 119.712C198.293 119.248 197.733 119.016 196.949 119.016C196.069 119.016 195.373 119.32 194.861 119.928C194.349 120.536 194.093 121.376 194.093 122.448V127.944C194.093 128.328 193.989 128.632 193.781 128.856C193.573 129.064 193.277 129.168 192.893 129.168C192.509 129.168 192.205 129.064 191.981 128.856C191.773 128.632 191.669 128.328 191.669 127.944V121.896C191.669 120.904 191.501 120.176 191.165 119.712C190.829 119.248 190.269 119.016 189.485 119.016C188.605 119.016 187.909 119.32 187.397 119.928C186.901 120.536 186.653 121.376 186.653 122.448V127.944C186.653 128.76 186.245 129.168 185.429 129.168ZM206.17 129.144C205.786 129.144 205.49 129.032 205.282 128.808C205.074 128.568 204.97 128.24 204.97 127.824V118.464C204.97 118.048 205.074 117.728 205.282 117.504C205.49 117.28 205.786 117.168 206.17 117.168C206.554 117.168 206.85 117.28 207.058 117.504C207.282 117.728 207.394 118.048 207.394 118.464V127.824C207.394 128.24 207.29 128.568 207.082 128.808C206.874 129.032 206.57 129.144 206.17 129.144ZM206.17 114.672C205.69 114.672 205.314 114.552 205.042 114.312C204.786 114.072 204.658 113.736 204.658 113.304C204.658 112.856 204.786 112.52 205.042 112.296C205.314 112.056 205.69 111.936 206.17 111.936C206.65 111.936 207.018 112.056 207.274 112.296C207.546 112.52 207.682 112.856 207.682 113.304C207.682 113.736 207.546 114.072 207.274 114.312C207.018 114.552 206.65 114.672 206.17 114.672ZM216.11 133.536C215.246 133.536 214.406 133.448 213.59 133.272C212.79 133.096 212.062 132.808 211.406 132.408C211.166 132.28 211.006 132.12 210.926 131.928C210.846 131.752 210.822 131.568 210.854 131.376C210.902 131.184 210.99 131.016 211.118 130.872C211.246 130.728 211.398 130.632 211.574 130.584C211.766 130.536 211.966 130.568 212.174 130.68C212.878 131.064 213.542 131.32 214.166 131.448C214.806 131.592 215.398 131.664 215.942 131.664C217.062 131.664 217.902 131.376 218.462 130.8C219.022 130.24 219.302 129.408 219.302 128.304V125.856H219.518C219.278 126.736 218.774 127.432 218.006 127.944C217.238 128.456 216.35 128.712 215.342 128.712C214.286 128.712 213.366 128.472 212.582 127.992C211.798 127.496 211.19 126.816 210.758 125.952C210.326 125.072 210.11 124.048 210.11 122.88C210.11 122 210.23 121.208 210.47 120.504C210.726 119.8 211.078 119.192 211.526 118.68C211.99 118.168 212.542 117.776 213.182 117.504C213.838 117.216 214.558 117.072 215.342 117.072C216.366 117.072 217.254 117.328 218.006 117.84C218.774 118.352 219.27 119.048 219.494 119.928L219.254 120.336V118.344C219.254 117.944 219.358 117.64 219.566 117.432C219.79 117.224 220.086 117.12 220.454 117.12C220.838 117.12 221.134 117.224 221.342 117.432C221.55 117.64 221.654 117.944 221.654 118.344V128.016C221.654 129.84 221.182 131.216 220.238 132.144C219.294 133.072 217.918 133.536 216.11 133.536ZM215.918 126.816C216.622 126.816 217.222 126.656 217.718 126.336C218.214 126.016 218.598 125.56 218.87 124.968C219.142 124.376 219.278 123.68 219.278 122.88C219.278 121.68 218.974 120.728 218.366 120.024C217.774 119.32 216.958 118.968 215.918 118.968C215.23 118.968 214.638 119.128 214.142 119.448C213.646 119.768 213.254 120.224 212.966 120.816C212.694 121.392 212.558 122.08 212.558 122.88C212.558 124.096 212.862 125.056 213.47 125.76C214.078 126.464 214.894 126.816 215.918 126.816ZM228.8 129.216C227.984 129.216 227.248 129.056 226.592 128.736C225.952 128.416 225.448 127.984 225.08 127.44C224.712 126.896 224.528 126.28 224.528 125.592C224.528 124.728 224.744 124.048 225.176 123.552C225.624 123.04 226.352 122.68 227.36 122.472C228.384 122.248 229.76 122.136 231.488 122.136H232.616V123.624H231.512C230.36 123.624 229.448 123.68 228.776 123.792C228.104 123.904 227.624 124.096 227.336 124.368C227.064 124.624 226.928 124.984 226.928 125.448C226.928 126.056 227.136 126.552 227.552 126.936C227.968 127.304 228.544 127.488 229.28 127.488C229.872 127.488 230.392 127.352 230.84 127.08C231.288 126.792 231.64 126.408 231.896 125.928C232.168 125.448 232.304 124.896 232.304 124.272V121.512C232.304 120.6 232.112 119.944 231.728 119.544C231.344 119.144 230.712 118.944 229.832 118.944C229.32 118.944 228.784 119.008 228.224 119.136C227.68 119.264 227.112 119.48 226.52 119.784C226.248 119.912 226.016 119.952 225.824 119.904C225.632 119.856 225.48 119.752 225.368 119.592C225.256 119.416 225.192 119.232 225.176 119.04C225.176 118.832 225.224 118.632 225.32 118.44C225.432 118.248 225.616 118.104 225.872 118.008C226.576 117.672 227.272 117.432 227.96 117.288C228.648 117.144 229.296 117.072 229.904 117.072C230.976 117.072 231.856 117.24 232.544 117.576C233.248 117.912 233.768 118.424 234.104 119.112C234.44 119.8 234.608 120.688 234.608 121.776V127.944C234.608 128.328 234.512 128.632 234.32 128.856C234.128 129.064 233.848 129.168 233.48 129.168C233.128 129.168 232.848 129.064 232.64 128.856C232.432 128.632 232.328 128.328 232.328 127.944V126.384H232.544C232.416 126.976 232.176 127.488 231.824 127.92C231.488 128.336 231.064 128.656 230.552 128.88C230.04 129.104 229.456 129.216 228.8 129.216ZM248.738 129.216C247.714 129.216 246.81 128.976 246.026 128.496C245.258 128 244.658 127.296 244.226 126.384C243.794 125.456 243.578 124.376 243.578 123.144C243.578 121.88 243.794 120.8 244.226 119.904C244.658 119.008 245.258 118.312 246.026 117.816C246.81 117.32 247.714 117.072 248.738 117.072C249.762 117.072 250.642 117.328 251.378 117.84C252.13 118.336 252.634 119.008 252.89 119.856H252.626V113.136C252.626 112.736 252.73 112.432 252.938 112.224C253.146 112.016 253.442 111.912 253.826 111.912C254.21 111.912 254.506 112.016 254.714 112.224C254.938 112.432 255.05 112.736 255.05 113.136V127.944C255.05 128.328 254.946 128.632 254.738 128.856C254.53 129.064 254.234 129.168 253.85 129.168C253.466 129.168 253.17 129.064 252.962 128.856C252.754 128.632 252.65 128.328 252.65 127.944V125.832L252.914 126.36C252.658 127.224 252.154 127.92 251.402 128.448C250.666 128.96 249.778 129.216 248.738 129.216ZM249.362 127.344C250.018 127.344 250.594 127.184 251.09 126.864C251.586 126.544 251.97 126.072 252.242 125.448C252.53 124.824 252.674 124.056 252.674 123.144C252.674 121.768 252.37 120.728 251.762 120.024C251.154 119.32 250.354 118.968 249.362 118.968C248.69 118.968 248.106 119.128 247.61 119.448C247.114 119.752 246.722 120.216 246.434 120.84C246.162 121.464 246.026 122.232 246.026 123.144C246.026 124.504 246.33 125.544 246.938 126.264C247.546 126.984 248.354 127.344 249.362 127.344ZM263.542 129.216C262.358 129.216 261.334 128.968 260.47 128.472C259.622 127.976 258.958 127.272 258.478 126.36C257.998 125.448 257.758 124.376 257.758 123.144C257.758 122.2 257.894 121.36 258.166 120.624C258.438 119.888 258.822 119.256 259.318 118.728C259.83 118.184 260.438 117.776 261.142 117.504C261.862 117.216 262.662 117.072 263.542 117.072C264.71 117.072 265.718 117.32 266.566 117.816C267.43 118.312 268.102 119.016 268.582 119.928C269.062 120.824 269.302 121.896 269.302 123.144C269.302 124.072 269.166 124.912 268.894 125.664C268.622 126.416 268.23 127.056 267.718 127.584C267.222 128.112 266.614 128.52 265.894 128.808C265.19 129.08 264.406 129.216 263.542 129.216ZM263.542 127.344C264.198 127.344 264.774 127.184 265.27 126.864C265.766 126.544 266.15 126.072 266.422 125.448C266.71 124.824 266.854 124.056 266.854 123.144C266.854 121.768 266.55 120.728 265.942 120.024C265.334 119.32 264.534 118.968 263.542 118.968C262.87 118.968 262.286 119.128 261.79 119.448C261.294 119.752 260.902 120.216 260.614 120.84C260.342 121.464 260.206 122.232 260.206 123.144C260.206 124.504 260.51 125.544 261.118 126.264C261.726 126.984 262.534 127.344 263.542 127.344ZM276.128 129.216C275.424 129.216 274.696 129.136 273.944 128.976C273.208 128.816 272.528 128.544 271.904 128.16C271.696 128.016 271.552 127.856 271.472 127.68C271.392 127.504 271.36 127.328 271.376 127.152C271.408 126.96 271.48 126.8 271.592 126.672C271.72 126.528 271.872 126.44 272.048 126.408C272.24 126.376 272.44 126.416 272.648 126.528C273.272 126.88 273.872 127.128 274.448 127.272C275.024 127.4 275.592 127.464 276.152 127.464C277 127.464 277.64 127.312 278.072 127.008C278.504 126.704 278.72 126.296 278.72 125.784C278.72 125.368 278.576 125.048 278.288 124.824C278 124.584 277.568 124.4 276.992 124.272L274.712 123.816C273.72 123.608 272.968 123.24 272.456 122.712C271.944 122.184 271.688 121.512 271.688 120.696C271.688 119.96 271.888 119.32 272.288 118.776C272.688 118.232 273.248 117.816 273.968 117.528C274.688 117.224 275.52 117.072 276.464 117.072C277.168 117.072 277.832 117.16 278.456 117.336C279.08 117.512 279.656 117.776 280.184 118.128C280.392 118.24 280.528 118.392 280.592 118.584C280.656 118.76 280.664 118.936 280.616 119.112C280.584 119.288 280.504 119.448 280.376 119.592C280.248 119.72 280.088 119.8 279.896 119.832C279.72 119.848 279.52 119.8 279.296 119.688C278.816 119.384 278.336 119.168 277.856 119.04C277.392 118.912 276.928 118.848 276.464 118.848C275.616 118.848 274.976 119.008 274.544 119.328C274.128 119.632 273.92 120.048 273.92 120.576C273.92 120.976 274.048 121.304 274.304 121.56C274.56 121.816 274.96 122 275.504 122.112L277.784 122.568C278.824 122.776 279.608 123.128 280.136 123.624C280.68 124.12 280.952 124.792 280.952 125.64C280.952 126.744 280.512 127.616 279.632 128.256C278.752 128.896 277.584 129.216 276.128 129.216ZM291.177 133.488C290.793 133.488 290.497 133.384 290.289 133.176C290.081 132.968 289.977 132.664 289.977 132.264V118.344C289.977 117.944 290.081 117.64 290.289 117.432C290.497 117.224 290.785 117.12 291.153 117.12C291.537 117.12 291.833 117.224 292.041 117.432C292.249 117.64 292.353 117.944 292.353 118.344V120.432L292.089 119.928C292.345 119.064 292.849 118.376 293.601 117.864C294.353 117.336 295.241 117.072 296.265 117.072C297.305 117.072 298.209 117.32 298.977 117.816C299.761 118.312 300.361 119.008 300.777 119.904C301.209 120.8 301.425 121.88 301.425 123.144C301.425 124.376 301.209 125.456 300.777 126.384C300.361 127.296 299.769 128 299.001 128.496C298.233 128.976 297.321 129.216 296.265 129.216C295.257 129.216 294.377 128.96 293.625 128.448C292.873 127.936 292.369 127.256 292.113 126.408H292.401V132.264C292.401 132.664 292.289 132.968 292.065 133.176C291.857 133.384 291.561 133.488 291.177 133.488ZM295.665 127.344C296.337 127.344 296.921 127.184 297.417 126.864C297.913 126.544 298.297 126.072 298.569 125.448C298.841 124.824 298.977 124.056 298.977 123.144C298.977 121.768 298.673 120.728 298.065 120.024C297.473 119.32 296.673 118.968 295.665 118.968C295.009 118.968 294.425 119.128 293.913 119.448C293.417 119.752 293.033 120.216 292.761 120.84C292.489 121.464 292.353 122.232 292.353 123.144C292.353 124.504 292.657 125.544 293.265 126.264C293.873 126.984 294.673 127.344 295.665 127.344ZM307.901 129.216C307.085 129.216 306.349 129.056 305.693 128.736C305.053 128.416 304.549 127.984 304.181 127.44C303.813 126.896 303.629 126.28 303.629 125.592C303.629 124.728 303.845 124.048 304.277 123.552C304.725 123.04 305.453 122.68 306.461 122.472C307.485 122.248 308.861 122.136 310.589 122.136H311.717V123.624H310.613C309.461 123.624 308.549 123.68 307.877 123.792C307.205 123.904 306.725 124.096 306.437 124.368C306.165 124.624 306.029 124.984 306.029 125.448C306.029 126.056 306.237 126.552 306.653 126.936C307.069 127.304 307.645 127.488 308.381 127.488C308.973 127.488 309.493 127.352 309.941 127.08C310.389 126.792 310.741 126.408 310.997 125.928C311.269 125.448 311.405 124.896 311.405 124.272V121.512C311.405 120.6 311.213 119.944 310.829 119.544C310.445 119.144 309.813 118.944 308.933 118.944C308.421 118.944 307.885 119.008 307.325 119.136C306.781 119.264 306.213 119.48 305.621 119.784C305.349 119.912 305.117 119.952 304.925 119.904C304.733 119.856 304.581 119.752 304.469 119.592C304.357 119.416 304.293 119.232 304.277 119.04C304.277 118.832 304.325 118.632 304.421 118.44C304.533 118.248 304.717 118.104 304.973 118.008C305.677 117.672 306.373 117.432 307.061 117.288C307.749 117.144 308.397 117.072 309.005 117.072C310.077 117.072 310.957 117.24 311.645 117.576C312.349 117.912 312.869 118.424 313.205 119.112C313.541 119.8 313.709 120.688 313.709 121.776V127.944C313.709 128.328 313.613 128.632 313.421 128.856C313.229 129.064 312.949 129.168 312.581 129.168C312.229 129.168 311.949 129.064 311.741 128.856C311.533 128.632 311.429 128.328 311.429 127.944V126.384H311.645C311.517 126.976 311.277 127.488 310.925 127.92C310.589 128.336 310.165 128.656 309.653 128.88C309.141 129.104 308.557 129.216 307.901 129.216ZM318.248 129.144C317.864 129.144 317.568 129.032 317.36 128.808C317.152 128.568 317.048 128.24 317.048 127.824V118.464C317.048 118.048 317.152 117.728 317.36 117.504C317.568 117.28 317.864 117.168 318.248 117.168C318.632 117.168 318.928 117.28 319.136 117.504C319.36 117.728 319.472 118.048 319.472 118.464V127.824C319.472 128.24 319.368 128.568 319.16 128.808C318.952 129.032 318.648 129.144 318.248 129.144ZM318.248 114.672C317.768 114.672 317.392 114.552 317.12 114.312C316.864 114.072 316.736 113.736 316.736 113.304C316.736 112.856 316.864 112.52 317.12 112.296C317.392 112.056 317.768 111.936 318.248 111.936C318.728 111.936 319.096 112.056 319.352 112.296C319.624 112.52 319.76 112.856 319.76 113.304C319.76 113.736 319.624 114.072 319.352 114.312C319.096 114.552 318.728 114.672 318.248 114.672ZM326.988 129.216C326.284 129.216 325.556 129.136 324.804 128.976C324.068 128.816 323.388 128.544 322.764 128.16C322.556 128.016 322.412 127.856 322.332 127.68C322.252 127.504 322.22 127.328 322.236 127.152C322.268 126.96 322.34 126.8 322.452 126.672C322.58 126.528 322.732 126.44 322.908 126.408C323.1 126.376 323.3 126.416 323.508 126.528C324.132 126.88 324.732 127.128 325.308 127.272C325.884 127.4 326.452 127.464 327.012 127.464C327.86 127.464 328.5 127.312 328.932 127.008C329.364 126.704 329.58 126.296 329.58 125.784C329.58 125.368 329.436 125.048 329.148 124.824C328.86 124.584 328.428 124.4 327.852 124.272L325.572 123.816C324.58 123.608 323.828 123.24 323.316 122.712C322.804 122.184 322.548 121.512 322.548 120.696C322.548 119.96 322.748 119.32 323.148 118.776C323.548 118.232 324.108 117.816 324.828 117.528C325.548 117.224 326.38 117.072 327.324 117.072C328.028 117.072 328.692 117.16 329.316 117.336C329.94 117.512 330.516 117.776 331.044 118.128C331.252 118.24 331.388 118.392 331.452 118.584C331.516 118.76 331.524 118.936 331.476 119.112C331.444 119.288 331.364 119.448 331.236 119.592C331.108 119.72 330.948 119.8 330.756 119.832C330.58 119.848 330.38 119.8 330.156 119.688C329.676 119.384 329.196 119.168 328.716 119.04C328.252 118.912 327.788 118.848 327.324 118.848C326.476 118.848 325.836 119.008 325.404 119.328C324.988 119.632 324.78 120.048 324.78 120.576C324.78 120.976 324.908 121.304 325.164 121.56C325.42 121.816 325.82 122 326.364 122.112L328.644 122.568C329.684 122.776 330.468 123.128 330.996 123.624C331.54 124.12 331.812 124.792 331.812 125.64C331.812 126.744 331.372 127.616 330.492 128.256C329.612 128.896 328.444 129.216 326.988 129.216ZM335.568 129.096C335.104 129.096 334.728 128.952 334.44 128.664C334.152 128.376 334.008 128.008 334.008 127.56C334.008 127.112 334.152 126.752 334.44 126.48C334.728 126.192 335.104 126.048 335.568 126.048C336.032 126.048 336.4 126.192 336.672 126.48C336.944 126.752 337.08 127.112 337.08 127.56C337.08 128.008 336.944 128.376 336.672 128.664C336.4 128.952 336.032 129.096 335.568 129.096Z" fill="white"/>
<path d="M3.168 53.208C3.168 46.552 4.608 40.632 7.488 35.448C10.368 30.2 14.368 26.136 19.488 23.256C24.672 20.312 30.528 18.84 37.056 18.84C45.056 18.84 51.904 20.952 57.6 25.176C63.296 29.4 67.104 35.16 69.024 42.456H50.976C49.632 39.64 47.712 37.496 45.216 36.024C42.784 34.552 40 33.816 36.864 33.816C31.808 33.816 27.712 35.576 24.576 39.096C21.44 42.616 19.872 47.32 19.872 53.208C19.872 59.096 21.44 63.8 24.576 67.32C27.712 70.84 31.808 72.6 36.864 72.6C40 72.6 42.784 71.864 45.216 70.392C47.712 68.92 49.632 66.776 50.976 63.96H69.024C67.104 71.256 63.296 77.016 57.6 81.24C51.904 85.4 45.056 87.48 37.056 87.48C30.528 87.48 24.672 86.04 19.488 83.16C14.368 80.216 10.368 76.152 7.488 70.968C4.608 65.784 3.168 59.864 3.168 53.208ZM95.493 42.36C97.413 39.416 99.813 37.112 102.693 35.448C105.573 33.72 108.773 32.856 112.293 32.856V50.232H107.781C103.685 50.232 100.613 51.128 98.565 52.92C96.517 54.648 95.493 57.72 95.493 62.136V87H79.077V33.432H95.493V42.36ZM170.635 59.352C170.635 60.888 170.54 62.488 170.348 64.152H133.196C133.452 67.48 134.508 70.04 136.364 71.832C138.284 73.56 140.62 74.424 143.372 74.424C147.468 74.424 150.316 72.696 151.916 69.24H169.388C168.492 72.76 166.86 75.928 164.492 78.744C162.188 81.56 159.276 83.768 155.756 85.368C152.236 86.968 148.3 87.768 143.948 87.768C138.7 87.768 134.028 86.648 129.932 84.408C125.836 82.168 122.636 78.968 120.332 74.808C118.028 70.648 116.876 65.784 116.876 60.216C116.876 54.648 117.996 49.784 120.236 45.624C122.54 41.464 125.74 38.264 129.836 36.024C133.932 33.784 138.636 32.664 143.948 32.664C149.132 32.664 153.74 33.752 157.772 35.928C161.804 38.104 164.94 41.208 167.18 45.24C169.484 49.272 170.635 53.976 170.635 59.352ZM153.836 55.032C153.836 52.216 152.876 49.976 150.956 48.312C149.036 46.648 146.636 45.816 143.756 45.816C141.004 45.816 138.668 46.616 136.748 48.216C134.892 49.816 133.74 52.088 133.292 55.032H153.836ZM201.088 87.768C196.416 87.768 192.256 86.968 188.608 85.368C184.96 83.768 182.08 81.592 179.968 78.84C177.856 76.024 176.672 72.888 176.416 69.432H192.64C192.832 71.288 193.696 72.792 195.232 73.944C196.768 75.096 198.656 75.672 200.896 75.672C202.944 75.672 204.512 75.288 205.6 74.52C206.752 73.688 207.328 72.632 207.328 71.352C207.328 69.816 206.528 68.696 204.928 67.992C203.328 67.224 200.736 66.392 197.152 65.496C193.312 64.6 190.112 63.672 187.552 62.712C184.992 61.688 182.784 60.12 180.928 58.008C179.072 55.832 178.144 52.92 178.144 49.272C178.144 46.2 178.976 43.416 180.64 40.92C182.368 38.36 184.864 36.344 188.128 34.872C191.456 33.4 195.392 32.664 199.936 32.664C206.656 32.664 211.936 34.328 215.776 37.656C219.68 40.984 221.92 45.4 222.496 50.904H207.328C207.072 49.048 206.24 47.576 204.832 46.488C203.488 45.4 201.696 44.856 199.456 44.856C197.536 44.856 196.064 45.24 195.04 46.008C194.016 46.712 193.504 47.704 193.504 48.984C193.504 50.52 194.304 51.672 195.904 52.44C197.568 53.208 200.128 53.976 203.584 54.744C207.552 55.768 210.784 56.792 213.28 57.816C215.776 58.776 217.952 60.376 219.808 62.616C221.728 64.792 222.72 67.736 222.784 71.448C222.784 74.584 221.888 77.4 220.096 79.896C218.368 82.328 215.84 84.248 212.512 85.656C209.248 87.064 205.44 87.768 201.088 87.768ZM283.323 59.352C283.323 60.888 283.227 62.488 283.035 64.152H245.883C246.139 67.48 247.195 70.04 249.051 71.832C250.971 73.56 253.307 74.424 256.059 74.424C260.155 74.424 263.003 72.696 264.603 69.24H282.075C281.179 72.76 279.547 75.928 277.179 78.744C274.875 81.56 271.963 83.768 268.443 85.368C264.923 86.968 260.987 87.768 256.635 87.768C251.387 87.768 246.715 86.648 242.619 84.408C238.523 82.168 235.323 78.968 233.019 74.808C230.715 70.648 229.563 65.784 229.563 60.216C229.563 54.648 230.683 49.784 232.923 45.624C235.227 41.464 238.427 38.264 242.523 36.024C246.619 33.784 251.323 32.664 256.635 32.664C261.819 32.664 266.427 33.752 270.459 35.928C274.491 38.104 277.627 41.208 279.867 45.24C282.171 49.272 283.323 53.976 283.323 59.352ZM266.523 55.032C266.523 52.216 265.563 49.976 263.643 48.312C261.723 46.648 259.323 45.816 256.443 45.816C253.691 45.816 251.355 46.616 249.435 48.216C247.579 49.816 246.427 52.088 245.979 55.032H266.523ZM308.399 42.36C310.319 39.416 312.719 37.112 315.599 35.448C318.479 33.72 321.679 32.856 325.199 32.856V50.232H320.687C316.591 50.232 313.519 51.128 311.471 52.92C309.423 54.648 308.399 57.72 308.399 62.136V87H291.983V33.432H308.399V42.36ZM341.302 27.864C338.422 27.864 336.054 27.032 334.198 25.368C332.406 23.64 331.51 21.528 331.51 19.032C331.51 16.472 332.406 14.36 334.198 12.696C336.054 10.968 338.422 10.104 341.302 10.104C344.118 10.104 346.422 10.968 348.214 12.696C350.07 14.36 350.998 16.472 350.998 19.032C350.998 21.528 350.07 23.64 348.214 25.368C346.422 27.032 344.118 27.864 341.302 27.864ZM349.462 33.432V87H333.046V33.432H349.462Z" fill="white"/>
</svg>
