<svg width="352" height="77" viewBox="0 0 352 77" fill="none" xmlns="http://www.w3.org/2000/svg">
<path d="M162.114 34.75H152.159C151.977 33.4621 151.606 32.3182 151.045 31.3182C150.485 30.303 149.765 29.4394 148.886 28.7273C148.008 28.0151 146.992 27.4697 145.841 27.0909C144.705 26.7121 143.47 26.5227 142.136 26.5227C139.727 26.5227 137.629 27.1212 135.841 28.3182C134.053 29.5 132.667 31.2273 131.682 33.5C130.697 35.7576 130.205 38.5 130.205 41.7273C130.205 45.0455 130.697 47.8333 131.682 50.0909C132.682 52.3485 134.076 54.053 135.864 55.2045C137.652 56.3561 139.72 56.9318 142.068 56.9318C143.386 56.9318 144.606 56.7576 145.727 56.4091C146.864 56.0606 147.871 55.553 148.75 54.8864C149.629 54.2045 150.356 53.3788 150.932 52.4091C151.523 51.4394 151.932 50.3333 152.159 49.0909L162.114 49.1364C161.856 51.2727 161.212 53.3333 160.182 55.3182C159.167 57.2879 157.795 59.053 156.068 60.6136C154.356 62.1591 152.311 63.3864 149.932 64.2955C147.568 65.1894 144.894 65.6364 141.909 65.6364C137.758 65.6364 134.045 64.697 130.773 62.8182C127.515 60.9394 124.939 58.2197 123.045 54.6591C121.167 51.0985 120.227 46.7879 120.227 41.7273C120.227 36.6515 121.182 32.3333 123.091 28.7727C125 25.2121 127.591 22.5 130.864 20.6364C134.136 18.7576 137.818 17.8182 141.909 17.8182C144.606 17.8182 147.106 18.197 149.409 18.9545C151.727 19.7121 153.78 20.8182 155.568 22.2727C157.356 23.7121 158.811 25.4773 159.932 27.5682C161.068 29.6591 161.795 32.053 162.114 34.75ZM168.989 65V30.0909H178.375V36.1818H178.739C179.375 34.0152 180.443 32.3788 181.943 31.2727C183.443 30.1515 185.17 29.5909 187.125 29.5909C187.61 29.5909 188.133 29.6212 188.693 29.6818C189.254 29.7424 189.746 29.8258 190.17 29.9318V38.5227C189.716 38.3864 189.087 38.2652 188.284 38.1591C187.481 38.053 186.746 38 186.08 38C184.655 38 183.383 38.3106 182.261 38.9318C181.155 39.5379 180.277 40.3864 179.625 41.4773C178.989 42.5682 178.67 43.8258 178.67 45.25V65H168.989ZM209.46 65.6818C205.869 65.6818 202.778 64.9545 200.188 63.5C197.612 62.0303 195.627 59.9545 194.233 57.2727C192.839 54.5758 192.142 51.3864 192.142 47.7045C192.142 44.1136 192.839 40.9621 194.233 38.25C195.627 35.5379 197.589 33.4242 200.119 31.9091C202.665 30.3939 205.65 29.6364 209.074 29.6364C211.377 29.6364 213.521 30.0076 215.506 30.75C217.506 31.4773 219.248 32.5758 220.733 34.0455C222.233 35.5152 223.4 37.3636 224.233 39.5909C225.066 41.803 225.483 44.3939 225.483 47.3636V50.0227H196.006V44.0227H216.369C216.369 42.6288 216.066 41.3939 215.46 40.3182C214.854 39.2424 214.013 38.4015 212.938 37.7955C211.877 37.1742 210.642 36.8636 209.233 36.8636C207.763 36.8636 206.46 37.2045 205.324 37.8864C204.203 38.553 203.324 39.4545 202.688 40.5909C202.051 41.7121 201.725 42.9621 201.71 44.3409V50.0455C201.71 51.7727 202.028 53.2652 202.665 54.5227C203.316 55.7803 204.233 56.75 205.415 57.4318C206.597 58.1136 207.998 58.4545 209.619 58.4545C210.695 58.4545 211.68 58.303 212.574 58C213.468 57.697 214.233 57.2424 214.869 56.6364C215.506 56.0303 215.991 55.2879 216.324 54.4091L225.278 55C224.824 57.1515 223.892 59.0303 222.483 60.6364C221.089 62.2273 219.286 63.4697 217.074 64.3636C214.877 65.2424 212.339 65.6818 209.46 65.6818ZM260.847 40.0455L251.983 40.5909C251.831 39.8333 251.506 39.1515 251.006 38.5455C250.506 37.9242 249.847 37.4318 249.028 37.0682C248.225 36.6894 247.263 36.5 246.142 36.5C244.642 36.5 243.377 36.8182 242.347 37.4545C241.316 38.0758 240.801 38.9091 240.801 39.9545C240.801 40.7879 241.134 41.4924 241.801 42.0682C242.468 42.6439 243.612 43.1061 245.233 43.4545L251.551 44.7273C254.945 45.4242 257.475 46.5455 259.142 48.0909C260.809 49.6364 261.642 51.6667 261.642 54.1818C261.642 56.4697 260.968 58.4773 259.619 60.2045C258.286 61.9318 256.453 63.2803 254.119 64.25C251.801 65.2045 249.127 65.6818 246.097 65.6818C241.475 65.6818 237.794 64.7197 235.051 62.7955C232.324 60.8561 230.725 58.2197 230.256 54.8864L239.778 54.3864C240.066 55.7955 240.763 56.8712 241.869 57.6136C242.975 58.3409 244.392 58.7045 246.119 58.7045C247.816 58.7045 249.18 58.3788 250.21 57.7273C251.256 57.0606 251.786 56.2045 251.801 55.1591C251.786 54.2803 251.415 53.5606 250.688 53C249.96 52.4242 248.839 51.9848 247.324 51.6818L241.278 50.4773C237.869 49.7955 235.331 48.6136 233.665 46.9318C232.013 45.25 231.188 43.1061 231.188 40.5C231.188 38.2576 231.794 36.3258 233.006 34.7045C234.233 33.0833 235.953 31.8333 238.165 30.9545C240.392 30.0758 242.998 29.6364 245.983 29.6364C250.392 29.6364 253.862 30.5682 256.392 32.4318C258.938 34.2955 260.422 36.8333 260.847 40.0455ZM283.648 65.6818C280.057 65.6818 276.966 64.9545 274.375 63.5C271.799 62.0303 269.814 59.9545 268.42 57.2727C267.027 54.5758 266.33 51.3864 266.33 47.7045C266.33 44.1136 267.027 40.9621 268.42 38.25C269.814 35.5379 271.777 33.4242 274.307 31.9091C276.852 30.3939 279.837 29.6364 283.261 29.6364C285.564 29.6364 287.708 30.0076 289.693 30.75C291.693 31.4773 293.436 32.5758 294.92 34.0455C296.42 35.5152 297.587 37.3636 298.42 39.5909C299.254 41.803 299.67 44.3939 299.67 47.3636V50.0227H270.193V44.0227H290.557C290.557 42.6288 290.254 41.3939 289.648 40.3182C289.042 39.2424 288.201 38.4015 287.125 37.7955C286.064 37.1742 284.83 36.8636 283.42 36.8636C281.951 36.8636 280.648 37.2045 279.511 37.8864C278.39 38.553 277.511 39.4545 276.875 40.5909C276.239 41.7121 275.913 42.9621 275.898 44.3409V50.0455C275.898 51.7727 276.216 53.2652 276.852 54.5227C277.504 55.7803 278.42 56.75 279.602 57.4318C280.784 58.1136 282.186 58.4545 283.807 58.4545C284.883 58.4545 285.867 58.303 286.761 58C287.655 57.697 288.42 57.2424 289.057 56.6364C289.693 56.0303 290.178 55.2879 290.511 54.4091L299.466 55C299.011 57.1515 298.08 59.0303 296.67 60.6364C295.277 62.2273 293.473 63.4697 291.261 64.3636C289.064 65.2424 286.527 65.6818 283.648 65.6818ZM305.989 65V30.0909H315.375V36.1818H315.739C316.375 34.0152 317.443 32.3788 318.943 31.2727C320.443 30.1515 322.17 29.5909 324.125 29.5909C324.61 29.5909 325.133 29.6212 325.693 29.6818C326.254 29.7424 326.746 29.8258 327.17 29.9318V38.5227C326.716 38.3864 326.087 38.2652 325.284 38.1591C324.481 38.053 323.746 38 323.08 38C321.655 38 320.383 38.3106 319.261 38.9318C318.155 39.5379 317.277 40.3864 316.625 41.4773C315.989 42.5682 315.67 43.8258 315.67 45.25V65H305.989ZM332.176 65V30.0909H341.858V65H332.176ZM337.04 25.5909C335.6 25.5909 334.366 25.1136 333.335 24.1591C332.32 23.1894 331.812 22.0303 331.812 20.6818C331.812 19.3485 332.32 18.2045 333.335 17.25C334.366 16.2803 335.6 15.7955 337.04 15.7955C338.479 15.7955 339.706 16.2803 340.722 17.25C341.752 18.2045 342.267 19.3485 342.267 20.6818C342.267 22.0303 341.752 23.1894 340.722 24.1591C339.706 25.1136 338.479 25.5909 337.04 25.5909Z" fill="white"/>
<path fill-rule="evenodd" clip-rule="evenodd" d="M28.1323 28.008C21.6992 28.1957 15.748 29.2095 9.58391 31.1679C8.55664 31.4942 8.3184 31.5931 8.27006 31.7131C8.23761 31.7937 8.05706 33.3865 7.86896 35.2526C7.68087 37.1186 7.00155 43.6714 6.35948 49.8142C5.71735 55.9569 5.20081 60.9916 5.21156 61.0024C5.22231 61.0131 5.78806 60.8478 6.46879 60.635C10.0972 59.5008 13.8179 58.8191 17.7733 58.5637C19.3227 58.4637 23.4231 58.5228 24.8272 58.6655C31.0062 59.2933 36.1228 60.7404 41.4735 63.3736C42.2067 63.7344 42.8133 64.0212 42.8215 64.011C42.8296 64.0007 42.7337 63.633 42.6083 63.194C41.7802 60.294 40.5421 55.0143 39.4179 49.5892C37.49 40.2847 36.7738 37.421 35.5662 34.1881C34.841 32.2466 34.1323 30.7086 33.2327 29.124C32.5438 27.9106 32.8476 28.044 30.703 28.0131C29.6931 27.9985 28.5363 27.9962 28.1323 28.008ZM61.5563 28.0131C61.1274 28.0337 60.9732 28.067 60.9065 28.1536C60.0823 29.2233 58.6378 31.5788 57.7396 33.3179C55.8608 36.9554 54.7524 39.9335 52.9712 46.1297C51.5447 51.0921 50.4938 55.712 49.5681 61.0901C49.0873 63.8836 48.972 64.6204 49.0096 64.658C49.027 64.6752 49.4296 64.4773 49.9044 64.2183C51.0905 63.5712 51.6063 63.3151 52.9131 62.7249C57.9167 60.4646 62.6069 59.221 68.227 58.6641C69.6433 58.5238 73.7568 58.4652 75.282 58.5637C79.3335 58.8253 83.3575 59.5811 86.878 60.7416C87.3853 60.9088 87.8101 61.035 87.8219 61.0221C87.8338 61.0091 87.4262 57.0169 86.9161 52.1505C86.4059 47.284 85.7184 40.6846 85.3883 37.485C85.0582 34.2855 84.7654 31.6465 84.7376 31.6206C84.7098 31.5947 84.1162 31.3887 83.4184 31.1628C78.1511 29.4578 72.7933 28.4567 67.0596 28.1061C65.8338 28.0312 62.3901 27.973 61.5563 28.0131ZM5.7683 40.0926C5.58207 41.0583 0.0610721 68.6966 0.0185392 68.8762C-0.0167157 69.0251 -0.00996995 69.0299 0.112354 68.9427C3.07844 66.8299 6.90814 64.9094 10.7205 63.6231C16.8402 61.5582 23.2404 60.7245 29.5679 61.1679C30.0637 61.2027 30.6796 61.2459 30.9367 61.2641C31.5813 61.3094 31.3163 61.2303 29.7142 60.8988C28.1815 60.5817 26.1305 60.2805 24.4265 60.1223C22.6815 59.9602 18.4105 59.9598 16.6812 60.1215C12.5301 60.5095 9.13954 61.2626 4.84406 62.7505C4.11766 63.0022 3.51285 63.1899 3.50003 63.1677C3.47639 63.1267 3.8021 59.9313 5.16182 46.8648C5.58241 42.8234 5.9176 39.5079 5.90671 39.4971C5.89583 39.4863 5.83353 39.7543 5.7683 40.0926ZM87.1309 39.6101C87.1273 39.665 87.3654 42.015 87.66 44.8325C88.5671 53.5079 89.5279 62.8767 89.5279 63.0463C89.5279 63.2054 89.5003 63.1983 87.408 62.4982C84.4622 61.5125 82.5728 61.0262 80.0465 60.6032C74.991 59.7567 69.9876 59.7564 64.9229 60.6021C64.1517 60.7309 63.0851 60.9402 62.5526 61.067C61.4708 61.3248 61.4359 61.3215 63.4874 61.1565C64.7545 61.0546 68.7151 61.054 70.0309 61.1555C76.1055 61.6242 81.599 63.0198 86.757 65.4047C88.9201 66.4048 91.6005 67.9376 92.7496 68.8315C92.9368 68.9772 93 69.0002 93 68.9228C93 68.8659 91.9615 63.6169 90.6921 57.2583C87.7064 42.3016 87.1388 39.4888 87.1309 39.6101Z" fill="#C7ADFE"/>
<path fill-rule="evenodd" clip-rule="evenodd" d="M45.7941 0.0574946C43.8055 0.248611 41.8943 1.16372 40.4665 2.60861C37.9528 5.15225 37.3229 9.15209 38.9363 12.3242C39.8681 14.1562 41.5793 15.7096 43.4812 16.4502C45.249 17.1385 47.4474 17.213 49.2253 16.645C51.7567 15.8362 53.814 13.8804 54.7063 11.4345C55.0081 10.6072 55.1528 9.8482 55.1942 8.87551C55.2973 6.44561 54.4301 4.23855 52.702 2.53318C51.2302 1.08068 49.4057 0.232109 47.3707 0.0537872C46.5464 -0.0184707 46.5855 -0.0186017 45.7941 0.0574946ZM19.6802 7.39399L19 7.42766L19.4421 7.62456C21.0843 8.35603 23.5593 9.73305 25.0535 10.7465C28.3825 13.0044 31.1948 15.8578 33.4023 19.2173C34.8607 21.4367 36.2375 24.3093 37.2315 27.2068C38.2216 30.0927 38.8399 32.6299 40.7649 41.7047C42.5931 50.3235 43.3844 53.5791 44.6443 57.6647C45.1181 59.201 46.1742 62.3118 46.3934 62.8164C46.4939 63.0479 46.4965 63.0491 46.538 62.8837C46.5614 62.7911 46.7657 61.5184 46.9921 60.0554C48.7465 48.7203 50.3714 41.6018 53.0794 33.388C54.3839 29.4313 55.6835 26.4676 57.4568 23.4056C59.859 19.2575 62.8044 15.6726 65.7619 13.2969L66 13.1057L65.0137 13.1442C61.3005 13.2891 57.6743 14.7028 54.437 17.2677C53.4094 18.082 51.6551 19.8354 50.7733 20.9297C49.3342 22.7156 47.739 25.2501 46.9139 27.0615C46.7208 27.4854 46.543 27.8543 46.5189 27.8813C46.4948 27.9084 46.3269 27.5751 46.1459 27.1406C45.9649 26.7062 45.5022 25.7144 45.1176 24.9366C43.1255 20.9078 40.8742 17.7509 38.0298 14.9977C35.2883 12.344 32.3073 10.4211 28.8534 9.07874C25.8489 7.91097 22.3218 7.26321 19.6802 7.39399Z" fill="white"/>
</svg>
