<svg width="93" height="69" viewBox="0 0 93 69" fill="none" xmlns="http://www.w3.org/2000/svg">
<path fill-rule="evenodd" clip-rule="evenodd" d="M28.1323 28.008C21.6992 28.1957 15.748 29.2095 9.58391 31.1679C8.55664 31.4942 8.3184 31.5931 8.27006 31.7131C8.23761 31.7937 8.05706 33.3865 7.86896 35.2526C7.68087 37.1186 7.00155 43.6714 6.35948 49.8142C5.71735 55.9569 5.20081 60.9916 5.21156 61.0024C5.22231 61.0131 5.78806 60.8478 6.46879 60.635C10.0972 59.5008 13.8179 58.8191 17.7733 58.5637C19.3227 58.4637 23.4231 58.5228 24.8272 58.6655C31.0062 59.2933 36.1228 60.7404 41.4735 63.3736C42.2067 63.7344 42.8133 64.0212 42.8215 64.011C42.8296 64.0007 42.7337 63.633 42.6083 63.194C41.7802 60.294 40.5421 55.0143 39.4179 49.5892C37.49 40.2847 36.7738 37.421 35.5662 34.1881C34.841 32.2466 34.1323 30.7086 33.2327 29.124C32.5438 27.9106 32.8476 28.044 30.703 28.0131C29.6931 27.9985 28.5363 27.9962 28.1323 28.008ZM61.5563 28.0131C61.1274 28.0337 60.9732 28.067 60.9065 28.1536C60.0823 29.2233 58.6378 31.5788 57.7396 33.3179C55.8608 36.9554 54.7524 39.9335 52.9712 46.1297C51.5447 51.0921 50.4938 55.712 49.5681 61.0901C49.0873 63.8836 48.972 64.6204 49.0096 64.658C49.027 64.6752 49.4296 64.4773 49.9044 64.2183C51.0905 63.5712 51.6063 63.3151 52.9131 62.7249C57.9167 60.4646 62.6069 59.221 68.227 58.6641C69.6433 58.5238 73.7568 58.4652 75.282 58.5637C79.3335 58.8253 83.3575 59.5811 86.878 60.7416C87.3853 60.9088 87.8101 61.035 87.8219 61.0221C87.8338 61.0091 87.4262 57.0169 86.9161 52.1505C86.4059 47.284 85.7184 40.6846 85.3883 37.485C85.0582 34.2855 84.7654 31.6465 84.7376 31.6206C84.7098 31.5947 84.1162 31.3887 83.4184 31.1628C78.1511 29.4578 72.7933 28.4567 67.0596 28.1061C65.8338 28.0312 62.3901 27.973 61.5563 28.0131ZM5.7683 40.0926C5.58207 41.0583 0.0610721 68.6966 0.0185392 68.8762C-0.0167157 69.0251 -0.00996995 69.0299 0.112354 68.9427C3.07844 66.8299 6.90814 64.9094 10.7205 63.6231C16.8402 61.5582 23.2404 60.7245 29.5679 61.1679C30.0637 61.2027 30.6796 61.2459 30.9367 61.2641C31.5813 61.3094 31.3163 61.2303 29.7142 60.8988C28.1815 60.5817 26.1305 60.2805 24.4266 60.1223C22.6815 59.9602 18.4105 59.9598 16.6812 60.1215C12.5301 60.5095 9.13954 61.2626 4.84405 62.7505C4.11766 63.0022 3.51285 63.1899 3.50003 63.1677C3.47639 63.1267 3.8021 59.9313 5.16182 46.8648C5.58241 42.8234 5.9176 39.5079 5.90671 39.4971C5.89583 39.4863 5.83353 39.7543 5.7683 40.0926ZM87.1309 39.6101C87.1273 39.665 87.3654 42.015 87.66 44.8325C88.5671 53.5079 89.5279 62.8767 89.5279 63.0463C89.5279 63.2054 89.5003 63.1983 87.408 62.4982C84.4622 61.5125 82.5728 61.0262 80.0465 60.6032C74.991 59.7567 69.9876 59.7564 64.9229 60.6021C64.1517 60.7309 63.0851 60.9402 62.5526 61.067C61.4708 61.3248 61.4359 61.3215 63.4874 61.1565C64.7546 61.0546 68.7151 61.054 70.0309 61.1555C76.1055 61.6242 81.599 63.0198 86.7569 65.4047C88.9201 66.4048 91.6005 67.9376 92.7496 68.8315C92.9368 68.9772 93 69.0002 93 68.9228C93 68.8659 91.9615 63.6169 90.6921 57.2583C87.7064 42.3016 87.1388 39.4888 87.1309 39.6101Z" fill="#C7ADFE"/>
<path fill-rule="evenodd" clip-rule="evenodd" d="M45.7942 0.0574946C43.8055 0.248611 41.8943 1.16372 40.4665 2.60861C37.9528 5.15225 37.3229 9.15209 38.9363 12.3242C39.8681 14.1562 41.5792 15.7096 43.4812 16.4502C45.249 17.1385 47.4474 17.213 49.2253 16.645C51.7567 15.8362 53.814 13.8804 54.7063 11.4345C55.0081 10.6072 55.1528 9.8482 55.1942 8.87551C55.2973 6.44561 54.4301 4.23855 52.702 2.53318C51.2302 1.08068 49.4057 0.232109 47.3707 0.0537872C46.5464 -0.0184707 46.5855 -0.0186017 45.7942 0.0574946ZM19.6802 7.39399L19 7.42766L19.4421 7.62456C21.0843 8.35603 23.5593 9.73305 25.0535 10.7465C28.3825 13.0044 31.1948 15.8578 33.4023 19.2173C34.8607 21.4367 36.2375 24.3093 37.2315 27.2068C38.2216 30.0927 38.8399 32.6299 40.7649 41.7047C42.5931 50.3235 43.3844 53.5791 44.6443 57.6647C45.1181 59.201 46.1742 62.3118 46.3934 62.8164C46.4939 63.0479 46.4965 63.0491 46.538 62.8837C46.5614 62.7911 46.7657 61.5184 46.9921 60.0554C48.7465 48.7203 50.3714 41.6018 53.0794 33.388C54.3839 29.4313 55.6835 26.4676 57.4568 23.4056C59.859 19.2575 62.8044 15.6726 65.7619 13.2969L66 13.1057L65.0137 13.1442C61.3005 13.2891 57.6743 14.7028 54.437 17.2677C53.4094 18.082 51.6551 19.8354 50.7733 20.9297C49.3342 22.7156 47.739 25.2501 46.9139 27.0615C46.7208 27.4854 46.543 27.8543 46.5189 27.8813C46.4948 27.9084 46.3269 27.5751 46.1459 27.1406C45.9649 26.7062 45.5022 25.7144 45.1176 24.9366C43.1255 20.9078 40.8742 17.7509 38.0298 14.9977C35.2883 12.344 32.3073 10.4211 28.8534 9.07874C25.8489 7.91097 22.3218 7.26321 19.6802 7.39399Z" fill="white"/>
</svg>
