<svg width="40" height="40" viewBox="0 0 40 40" fill="none" xmlns="http://www.w3.org/2000/svg">
<rect width="40" height="40" rx="8" fill="#7636E3"/>
<path d="M19.9999 20.4489C23.1615 20.4489 25.7244 17.886 25.7244 14.7245C25.7244 11.5629 23.1615 9 19.9999 9C16.8384 9 14.2755 11.5629 14.2755 14.7245C14.2755 17.886 16.8384 20.4489 19.9999 20.4489Z" stroke="white" stroke-width="2"/>
<path d="M25.7245 22.7388H26.1275C26.9645 22.739 27.7726 23.0449 28.4 23.5989C29.0274 24.1529 29.4309 24.917 29.5347 25.7476L29.9823 29.3242C30.0226 29.6464 29.9939 29.9735 29.8981 30.2837C29.8023 30.594 29.6416 30.8803 29.4266 31.1237C29.2117 31.3671 28.9475 31.562 28.6515 31.6955C28.3554 31.829 28.0344 31.898 27.7097 31.8979H12.2903C11.9656 31.898 11.6446 31.829 11.3485 31.6955C11.0525 31.562 10.7883 31.3671 10.5734 31.1237C10.3584 30.8803 10.1977 30.594 10.1019 30.2837C10.0061 29.9735 9.97741 29.6464 10.0177 29.3242L10.4642 25.7476C10.568 24.9166 10.9718 24.1522 11.5997 23.5981C12.2276 23.0441 13.0363 22.7384 13.8737 22.7388H14.2755" stroke="white" stroke-width="2" stroke-linecap="round" stroke-linejoin="round"/>
</svg>
